<?xml version="1.0" standalone="yes"?>

<svg version="1.1" viewBox="0.0 0.0 384.0 384.0" fill="none" stroke="none" stroke-linecap="square" stroke-miterlimit="10" xmlns="http://www.w3.org/2000/svg" xmlns:xlink="http://www.w3.org/1999/xlink"><clipPath id="g1c1dd7f093_0_0.0"><path d="m0 0l384.0 0l0 384.0l-384.0 0l0 -384.0z" clip-rule="nonzero"></path></clipPath><g clip-path="url(#g1c1dd7f093_0_0.0)"><path fill="#000000" fill-opacity="0.0" d="m0 0l384.0 0l0 384.0l-384.0 0z" fill-rule="nonzero"></path><path fill="#000000" d="m0 64.00128l0 0c0 -35.34693 28.654348 -64.00128 64.00128 -64.00128l255.99744 0l0 0c16.974182 0 33.253174 6.742973 45.255737 18.74554c12.002563 12.002569 18.745544 28.281544 18.745544 45.25574l0 255.99744c0 35.346924 -28.654358 64.00128 -64.00128 64.00128l-255.99744 0c-35.34693 0 -64.00128 -28.654358 -64.00128 -64.00128z" fill-rule="nonzero"></path><path fill="#6d9eeb" d="m29.34904 71.540634l324.69293 0l0 281.88977l-324.69293 0z" fill-rule="nonzero"></path><path fill="#cc0000" d="m29.349092 41.43307l0 0c0 -8.114674 6.7051525 -14.692913 14.9763775 -14.692913l0 0c3.9719849 0 7.7812843 1.5479984 10.589901 4.3034534c2.8086128 2.755457 4.3864784 6.492655 4.3864784 10.38946l0 0c0 8.114674 -6.7051544 14.692913 -14.976379 14.692913l0 0c-8.271225 0 -14.9763775 -6.5782394 -14.9763775 -14.692913z" fill-rule="nonzero"></path><path fill="#999999" d="m149.34862 34.31496l204.69292 0l0 14.236221l-204.69292 0z" fill-rule="nonzero"></path><path fill="#1155cc" d="m69.34909 41.43307l0 0c0 -8.114674 6.7051544 -14.692913 14.976379 -14.692913l0 0c3.9719849 0 7.7812805 1.5479984 10.589897 4.3034534c2.8086166 2.755457 4.3864822 6.492655 4.3864822 10.38946l0 0c0 8.114674 -6.7051544 14.692913 -14.976379 14.692913l0 0c-8.271225 0 -14.976379 -6.5782394 -14.976379 -14.692913z" fill-rule="nonzero"></path><path fill="#e69138" d="m109.34909 41.43307l0 0c0 -8.114674 6.7051544 -14.692913 14.976379 -14.692913l0 0c3.9719849 0 7.7812805 1.5479984 10.589905 4.3034534c2.808609 2.755457 4.3864746 6.492655 4.3864746 10.38946l0 0c0 8.114674 -6.7051544 14.692913 -14.976379 14.692913l0 0c-8.271225 0 -14.976379 -6.5782394 -14.976379 -14.692913z" fill-rule="nonzero"></path><path fill="#ffffff" d="m111.49901 141.5643l0 0c0 -12.732986 10.745163 -23.055115 24.0 -23.055115l0 0c6.3651886 0 12.469696 2.429016 16.970566 6.7526855c4.5008698 4.3236694 7.029434 10.187836 7.029434 16.30243l0 0c0 12.732986 -10.745163 23.055115 -24.0 23.055115l0 0c-13.254837 0 -24.0 -10.322128 -24.0 -23.055115z" fill-rule="nonzero"></path><path fill="#ffffff" d="m168.0 270.22308l0 0c0 -12.732971 10.745163 -23.0551 24.0 -23.0551l0 0c6.3651886 0 12.469681 2.429016 16.97055 6.7526855c4.500885 4.3236847 7.0294495 10.18782 7.0294495 16.302414l0 0c0 12.733002 -10.745178 23.055145 -24.0 23.055145l0 0c-13.254837 0 -24.0 -10.322144 -24.0 -23.055145z" fill-rule="nonzero"></path><path fill="#0000ff" d="m56.32545 270.22308l0 0c0 -12.732971 10.745167 -23.0551 24.000004 -23.0551l0 0c6.365196 0 12.469688 2.429016 16.970558 6.7526855c4.5008774 4.3236847 7.029442 10.18782 7.029442 16.302414l0 0c0 12.733002 -10.745171 23.055145 -24.0 23.055145l0 0c-13.254837 0 -24.000004 -10.322144 -24.000004 -23.055145z" fill-rule="nonzero"></path><path fill="#ffffff" d="m278.66928 270.22308l0 0c0 -12.732971 10.745178 -23.0551 24.0 -23.0551l0 0c6.365204 0 12.469696 2.429016 16.970581 6.7526855c4.5008545 4.3236847 7.029419 10.18782 7.029419 16.302414l0 0c0 12.733002 -10.745148 23.055145 -24.0 23.055145l0 0c-13.254822 0 -24.0 -10.322144 -24.0 -23.055145z" fill-rule="nonzero"></path><path fill="#ffffff" d="m224.29439 142.09323l0 0c0 -12.732986 10.745163 -23.055122 24.0 -23.055122l0 0c6.365204 0 12.469681 2.429016 16.970566 6.752693c4.500885 4.3236694 7.0294495 10.187836 7.0294495 16.30243l0 0c0 12.732986 -10.745178 23.055115 -24.000015 23.055115l0 0c-13.254837 0 -24.0 -10.322128 -24.0 -23.055115z" fill-rule="nonzero"></path><path fill="#000000" fill-opacity="0.0" d="m135.49901 164.61942l0 41.27394l167.1811 0l0 41.277252" fill-rule="nonzero"></path><path stroke="#f3f3f3" stroke-width="4.0" stroke-linejoin="round" stroke-linecap="butt" d="m135.49901 164.61942l0 41.27394l167.1811 0l0 41.277252" fill-rule="nonzero"></path><path fill="#000000" fill-opacity="0.0" d="m192.0 247.16798l0 -41.27394l-56.503937 0l0 -41.277252" fill-rule="nonzero"></path><path stroke="#f3f3f3" stroke-width="4.0" stroke-linejoin="round" stroke-linecap="butt" d="m192.0 247.16798l0 -41.27394l-56.503937 0l0 -41.277252" fill-rule="nonzero"></path><path fill="#000000" fill-opacity="0.0" d="m80.325455 247.16798l0 -41.00952l167.9685 0l0 -41.006226" fill-rule="nonzero"></path><path stroke="#0000ff" stroke-width="4.0" stroke-linejoin="round" stroke-linecap="butt" d="m80.325455 247.16798l0 -41.00952l167.9685 0l0 -41.006226" fill-rule="nonzero"></path></g></svg>

